<svg width="100" height="100" viewBox="0 0 200 200" fill="none" xmlns="http://www.w3.org/2000/svg">
<path d="M99.993 187.486C158.333 187.486 187.486 148.314 187.486 99.993C187.486 51.672 158.333 12.5 99.993 12.5C41.6527 12.5 12.5 51.672 12.5 99.993C12.5 148.314 41.6527 187.486 99.993 187.486Z" fill="url(#paint0_radial_111_22)"/>
<path d="M99.993 187.486C158.333 187.486 187.486 148.314 187.486 99.993C187.486 51.672 158.333 12.5 99.993 12.5C41.6527 12.5 12.5 51.672 12.5 99.993C12.5 148.314 41.6527 187.486 99.993 187.486Z" fill="url(#paint1_radial_111_22)"/>
<path d="M99.993 187.486C158.333 187.486 187.486 148.314 187.486 99.993C187.486 51.672 158.333 12.5 99.993 12.5C41.6527 12.5 12.5 51.672 12.5 99.993C12.5 148.314 41.6527 187.486 99.993 187.486Z" fill="url(#paint2_radial_111_22)" fill-opacity="0.6"/>
<path d="M99.993 187.486C158.333 187.486 187.486 148.314 187.486 99.993C187.486 51.672 158.333 12.5 99.993 12.5C41.6527 12.5 12.5 51.672 12.5 99.993C12.5 148.314 41.6527 187.486 99.993 187.486Z" fill="url(#paint3_radial_111_22)"/>
<path d="M99.993 187.486C158.333 187.486 187.486 148.314 187.486 99.993C187.486 51.672 158.333 12.5 99.993 12.5C41.6527 12.5 12.5 51.672 12.5 99.993C12.5 148.314 41.6527 187.486 99.993 187.486Z" fill="url(#paint4_radial_111_22)"/>
<path d="M99.993 187.486C158.333 187.486 187.486 148.314 187.486 99.993C187.486 51.672 158.333 12.5 99.993 12.5C41.6527 12.5 12.5 51.672 12.5 99.993C12.5 148.314 41.6527 187.486 99.993 187.486Z" fill="url(#paint5_radial_111_22)"/>
<path d="M99.993 187.486C158.333 187.486 187.486 148.314 187.486 99.993C187.486 51.672 158.333 12.5 99.993 12.5C41.6527 12.5 12.5 51.672 12.5 99.993C12.5 148.314 41.6527 187.486 99.993 187.486Z" fill="url(#paint6_radial_111_22)"/>
<path d="M99.993 187.486C158.333 187.486 187.486 148.314 187.486 99.993C187.486 51.672 158.333 12.5 99.993 12.5C41.6527 12.5 12.5 51.672 12.5 99.993C12.5 148.314 41.6527 187.486 99.993 187.486Z" fill="url(#paint7_radial_111_22)"/>
<path d="M99.993 187.486C158.333 187.486 187.486 148.314 187.486 99.993C187.486 51.672 158.333 12.5 99.993 12.5C41.6527 12.5 12.5 51.672 12.5 99.993C12.5 148.314 41.6527 187.486 99.993 187.486Z" fill="url(#paint8_radial_111_22)"/>
<path d="M99.993 187.486C158.333 187.486 187.486 148.314 187.486 99.993C187.486 51.672 158.333 12.5 99.993 12.5C41.6527 12.5 12.5 51.672 12.5 99.993C12.5 148.314 41.6527 187.486 99.993 187.486Z" fill="url(#paint9_radial_111_22)"/>
<path d="M99.993 187.486C158.333 187.486 187.486 148.314 187.486 99.993C187.486 51.672 158.333 12.5 99.993 12.5C41.6527 12.5 12.5 51.672 12.5 99.993C12.5 148.314 41.6527 187.486 99.993 187.486Z" fill="url(#paint10_radial_111_22)"/>
<path d="M65.1193 101.403C79.6374 101.403 91.4066 89.6335 91.4066 75.1154C91.4066 60.5973 79.6374 48.8281 65.1193 48.8281C50.6012 48.8281 38.832 60.5973 38.832 75.1154C38.832 89.6335 50.6012 101.403 65.1193 101.403Z" fill="white"/>
<path d="M134.802 101.882C149.452 101.882 161.329 90.0055 161.329 75.3551C161.329 60.7046 149.452 48.8281 134.802 48.8281C120.151 48.8281 108.275 60.7046 108.275 75.3551C108.275 90.0055 120.151 101.882 134.802 101.882Z" fill="white"/>
<path fill-rule="evenodd" clip-rule="evenodd" d="M65.0004 113.75C67.7618 111.679 71.6793 112.238 73.7504 115C75.6839 117.578 84.449 125 100 125C115.552 125 124.317 117.578 126.25 115C128.321 112.238 132.239 111.679 135 113.75C137.762 115.821 138.321 119.738 136.25 122.5C131.934 128.255 119.449 137.5 100 137.5C80.5517 137.5 68.0668 128.255 63.7504 122.5C61.6793 119.738 62.2389 115.821 65.0004 113.75Z" fill="url(#paint11_radial_111_22)"/>
<path fill-rule="evenodd" clip-rule="evenodd" d="M68.75 87.5C75.6536 87.5 81.25 81.9036 81.25 75C81.25 68.0964 75.6536 62.5 68.75 62.5C61.8464 62.5 56.25 68.0964 56.25 75C56.25 81.9036 61.8464 87.5 68.75 87.5ZM131.25 87.5C138.154 87.5 143.75 81.9036 143.75 75C143.75 68.0964 138.154 62.5 131.25 62.5C124.346 62.5 118.75 68.0964 118.75 75C118.75 81.9036 124.346 87.5 131.25 87.5Z" fill="url(#paint12_linear_111_22)"/>
<defs>
<radialGradient id="paint0_radial_111_22" cx="0" cy="0" r="1" gradientUnits="userSpaceOnUse" gradientTransform="translate(159.375 56.25) rotate(131.878) scale(243.429)">
<stop stop-color="#FFF478"/>
<stop offset="0.474827" stop-color="#FFB02E"/>
<stop offset="1" stop-color="#F70A8D"/>
</radialGradient>
<radialGradient id="paint1_radial_111_22" cx="0" cy="0" r="1" gradientUnits="userSpaceOnUse" gradientTransform="translate(100 78.125) rotate(101.31) scale(111.541 142.863)">
<stop offset="0.787821" stop-color="#F59639" stop-opacity="0"/>
<stop offset="0.972509" stop-color="#FF7DCE"/>
</radialGradient>
<radialGradient id="paint2_radial_111_22" cx="0" cy="0" r="1" gradientUnits="userSpaceOnUse" gradientTransform="translate(112.5 87.5) rotate(135) scale(256.326)">
<stop offset="0.314853" stop-opacity="0"/>
<stop offset="1"/>
</radialGradient>
<radialGradient id="paint3_radial_111_22" cx="0" cy="0" r="1" gradientUnits="userSpaceOnUse" gradientTransform="translate(100 106.25) rotate(77.692) scale(175.918)">
<stop offset="0.507903" stop-color="#7D6133" stop-opacity="0"/>
<stop offset="1" stop-color="#715B32"/>
</radialGradient>
<radialGradient id="paint4_radial_111_22" cx="0" cy="0" r="1" gradientUnits="userSpaceOnUse" gradientTransform="translate(103.125 103.125) rotate(55.7131) scale(83.2095 60.3145)">
<stop stop-color="#FFB849"/>
<stop offset="1" stop-color="#FFB847" stop-opacity="0"/>
</radialGradient>
<radialGradient id="paint5_radial_111_22" cx="0" cy="0" r="1" gradientUnits="userSpaceOnUse" gradientTransform="translate(128.125 112.5) rotate(9.86581) scale(72.9539)">
<stop stop-color="#FFA64B"/>
<stop offset="0.900412" stop-color="#FFAE46" stop-opacity="0"/>
</radialGradient>
<radialGradient id="paint6_radial_111_22" cx="0" cy="0" r="1" gradientUnits="userSpaceOnUse" gradientTransform="translate(109.375 93.75) rotate(43.9708) scale(369.081)">
<stop offset="0.185425" stop-opacity="0"/>
<stop offset="1" stop-opacity="0.4"/>
</radialGradient>
<radialGradient id="paint7_radial_111_22" cx="0" cy="0" r="1" gradientUnits="userSpaceOnUse" gradientTransform="translate(60.0445 78.4676) rotate(101.574) scale(29.6706)">
<stop offset="0.177535" stop-color="#392108"/>
<stop offset="1" stop-color="#C87928" stop-opacity="0"/>
</radialGradient>
<radialGradient id="paint8_radial_111_22" cx="0" cy="0" r="1" gradientUnits="userSpaceOnUse" gradientTransform="translate(127.354 74.0345) rotate(124.895) scale(25.0726)">
<stop offset="0.10085" stop-color="#392108"/>
<stop offset="1" stop-color="#C87928" stop-opacity="0"/>
</radialGradient>
<radialGradient id="paint9_radial_111_22" cx="0" cy="0" r="1" gradientUnits="userSpaceOnUse" gradientTransform="translate(133.272 79.9103) rotate(107.802) scale(24.8594)">
<stop offset="0.359039" stop-color="#C84E28"/>
<stop offset="1" stop-color="#C84528" stop-opacity="0"/>
</radialGradient>
<radialGradient id="paint10_radial_111_22" cx="0" cy="0" r="1" gradientUnits="userSpaceOnUse" gradientTransform="translate(64.9028 79.0465) rotate(74.6785) scale(26.4608)">
<stop offset="0.359039" stop-color="#C84E28"/>
<stop offset="1" stop-color="#C84528" stop-opacity="0"/>
</radialGradient>
<radialGradient id="paint11_radial_111_22" cx="0" cy="0" r="1" gradientUnits="userSpaceOnUse" gradientTransform="translate(100 106.25) rotate(90) scale(34.375 52.6159)">
<stop offset="0.34763" stop-color="#241A1A"/>
<stop offset="0.628228" stop-color="#57444A"/>
<stop offset="1" stop-color="#4E2553"/>
<stop offset="1" stop-color="#502A56"/>
</radialGradient>
<linearGradient id="paint12_linear_111_22" x1="102.734" y1="58.3333" x2="99.5329" y2="87.7468" gradientUnits="userSpaceOnUse">
<stop stop-color="#553B3E"/>
<stop offset="1" stop-color="#3D2432"/>
</linearGradient>
</defs>
</svg>
