<svg width="100" height="100" viewBox="0 0 200 200" fill="none" xmlns="http://www.w3.org/2000/svg">
<path d="M99.993 187.486C158.333 187.486 187.486 148.314 187.486 99.993C187.486 51.672 158.333 12.5 99.993 12.5C41.6527 12.5 12.5 51.672 12.5 99.993C12.5 148.314 41.6527 187.486 99.993 187.486Z" fill="url(#paint0_radial_111_37)"/>
<path d="M99.993 187.486C158.333 187.486 187.486 148.314 187.486 99.993C187.486 51.672 158.333 12.5 99.993 12.5C41.6527 12.5 12.5 51.672 12.5 99.993C12.5 148.314 41.6527 187.486 99.993 187.486Z" fill="url(#paint1_radial_111_37)"/>
<path d="M99.993 187.486C158.333 187.486 187.486 148.314 187.486 99.993C187.486 51.672 158.333 12.5 99.993 12.5C41.6527 12.5 12.5 51.672 12.5 99.993C12.5 148.314 41.6527 187.486 99.993 187.486Z" fill="url(#paint2_radial_111_37)" fill-opacity="0.6"/>
<path d="M99.993 187.486C158.333 187.486 187.486 148.314 187.486 99.993C187.486 51.672 158.333 12.5 99.993 12.5C41.6527 12.5 12.5 51.672 12.5 99.993C12.5 148.314 41.6527 187.486 99.993 187.486Z" fill="url(#paint3_radial_111_37)"/>
<path d="M99.993 187.486C158.333 187.486 187.486 148.314 187.486 99.993C187.486 51.672 158.333 12.5 99.993 12.5C41.6527 12.5 12.5 51.672 12.5 99.993C12.5 148.314 41.6527 187.486 99.993 187.486Z" fill="url(#paint4_radial_111_37)"/>
<path d="M99.993 187.486C158.333 187.486 187.486 148.314 187.486 99.993C187.486 51.672 158.333 12.5 99.993 12.5C41.6527 12.5 12.5 51.672 12.5 99.993C12.5 148.314 41.6527 187.486 99.993 187.486Z" fill="url(#paint5_radial_111_37)"/>
<path d="M99.993 187.486C158.333 187.486 187.486 148.314 187.486 99.993C187.486 51.672 158.333 12.5 99.993 12.5C41.6527 12.5 12.5 51.672 12.5 99.993C12.5 148.314 41.6527 187.486 99.993 187.486Z" fill="url(#paint6_radial_111_37)"/>
<path d="M99.993 187.486C158.333 187.486 187.486 148.314 187.486 99.993C187.486 51.672 158.333 12.5 99.993 12.5C41.6527 12.5 12.5 51.672 12.5 99.993C12.5 148.314 41.6527 187.486 99.993 187.486Z" fill="url(#paint7_radial_111_37)"/>
<path d="M99.993 187.486C158.333 187.486 187.486 148.314 187.486 99.993C187.486 51.672 158.333 12.5 99.993 12.5C41.6527 12.5 12.5 51.672 12.5 99.993C12.5 148.314 41.6527 187.486 99.993 187.486Z" fill="url(#paint8_radial_111_37)"/>
<path d="M99.993 187.486C158.333 187.486 187.486 148.314 187.486 99.993C187.486 51.672 158.333 12.5 99.993 12.5C41.6527 12.5 12.5 51.672 12.5 99.993C12.5 148.314 41.6527 187.486 99.993 187.486Z" fill="url(#paint9_radial_111_37)"/>
<path d="M99.993 187.486C158.333 187.486 187.486 148.314 187.486 99.993C187.486 51.672 158.333 12.5 99.993 12.5C41.6527 12.5 12.5 51.672 12.5 99.993C12.5 148.314 41.6527 187.486 99.993 187.486Z" fill="url(#paint10_radial_111_37)"/>
<path d="M65.625 101.562C80.2951 101.562 92.1875 89.6701 92.1875 75C92.1875 60.3299 80.2951 48.4375 65.625 48.4375C50.9549 48.4375 39.0625 60.3299 39.0625 75C39.0625 89.6701 50.9549 101.562 65.625 101.562Z" fill="white"/>
<path d="M134.375 101.562C149.045 101.562 160.938 89.6701 160.938 75C160.938 60.3299 149.045 48.4375 134.375 48.4375C119.705 48.4375 107.812 60.3299 107.812 75C107.812 89.6701 119.705 101.562 134.375 101.562Z" fill="white"/>
<path d="M81.25 75C81.25 81.9036 75.6536 87.5 68.75 87.5C61.8464 87.5 56.25 81.9036 56.25 75C56.25 68.0964 61.8464 62.5 68.75 62.5C75.6536 62.5 81.25 68.0964 81.25 75Z" fill="url(#paint11_linear_111_37)"/>
<path d="M143.75 75C143.75 81.9036 138.154 87.5 131.25 87.5C124.346 87.5 118.75 81.9036 118.75 75C118.75 68.0964 124.346 62.5 131.25 62.5C138.154 62.5 143.75 68.0964 143.75 75Z" fill="url(#paint12_linear_111_37)"/>
<path fill-rule="evenodd" clip-rule="evenodd" d="M62.5 125C62.5 121.548 65.2982 118.75 68.75 118.75H131.25C134.702 118.75 137.5 121.548 137.5 125C137.5 128.452 134.702 131.25 131.25 131.25H68.75C65.2982 131.25 62.5 128.452 62.5 125Z" fill="url(#paint13_linear_111_37)"/>
<defs>
<radialGradient id="paint0_radial_111_37" cx="0" cy="0" r="1" gradientUnits="userSpaceOnUse" gradientTransform="translate(159.375 56.25) rotate(131.878) scale(243.429)">
<stop stop-color="#FFF478"/>
<stop offset="0.474827" stop-color="#FFB02E"/>
<stop offset="1" stop-color="#F70A8D"/>
</radialGradient>
<radialGradient id="paint1_radial_111_37" cx="0" cy="0" r="1" gradientUnits="userSpaceOnUse" gradientTransform="translate(100 78.125) rotate(101.31) scale(111.541 142.863)">
<stop offset="0.787821" stop-color="#F59639" stop-opacity="0"/>
<stop offset="0.972509" stop-color="#FF7DCE"/>
</radialGradient>
<radialGradient id="paint2_radial_111_37" cx="0" cy="0" r="1" gradientUnits="userSpaceOnUse" gradientTransform="translate(112.5 87.5) rotate(135) scale(256.326)">
<stop offset="0.314853" stop-opacity="0"/>
<stop offset="1"/>
</radialGradient>
<radialGradient id="paint3_radial_111_37" cx="0" cy="0" r="1" gradientUnits="userSpaceOnUse" gradientTransform="translate(100 106.25) rotate(77.692) scale(175.918)">
<stop offset="0.507903" stop-color="#7D6133" stop-opacity="0"/>
<stop offset="1" stop-color="#715B32"/>
</radialGradient>
<radialGradient id="paint4_radial_111_37" cx="0" cy="0" r="1" gradientUnits="userSpaceOnUse" gradientTransform="translate(103.125 103.125) rotate(55.7131) scale(83.2095 60.3145)">
<stop stop-color="#FFB849"/>
<stop offset="1" stop-color="#FFB847" stop-opacity="0"/>
</radialGradient>
<radialGradient id="paint5_radial_111_37" cx="0" cy="0" r="1" gradientUnits="userSpaceOnUse" gradientTransform="translate(128.125 112.5) rotate(9.86581) scale(72.9539)">
<stop stop-color="#FFA64B"/>
<stop offset="0.900412" stop-color="#FFAE46" stop-opacity="0"/>
</radialGradient>
<radialGradient id="paint6_radial_111_37" cx="0" cy="0" r="1" gradientUnits="userSpaceOnUse" gradientTransform="translate(109.375 93.75) rotate(43.9708) scale(369.081)">
<stop offset="0.185425" stop-opacity="0"/>
<stop offset="1" stop-opacity="0.4"/>
</radialGradient>
<radialGradient id="paint7_radial_111_37" cx="0" cy="0" r="1" gradientUnits="userSpaceOnUse" gradientTransform="translate(133.36 77.5246) rotate(118.025) scale(28.2393)">
<stop offset="0.359039" stop-color="#C84E28"/>
<stop offset="1" stop-color="#C84528" stop-opacity="0"/>
</radialGradient>
<radialGradient id="paint8_radial_111_37" cx="0" cy="0" r="1" gradientUnits="userSpaceOnUse" gradientTransform="translate(64.6064 77.1225) rotate(83.9115) scale(30.3261)">
<stop offset="0.359039" stop-color="#C84E28"/>
<stop offset="1" stop-color="#C84528" stop-opacity="0"/>
</radialGradient>
<radialGradient id="paint9_radial_111_37" cx="0" cy="0" r="1" gradientUnits="userSpaceOnUse" gradientTransform="translate(58.9775 77.9266) rotate(106.763) scale(34.8525)">
<stop stop-color="#392108"/>
<stop offset="1" stop-color="#C87928" stop-opacity="0"/>
</radialGradient>
<radialGradient id="paint10_radial_111_37" cx="0" cy="0" r="1" gradientUnits="userSpaceOnUse" gradientTransform="translate(127.329 75.5142) rotate(122.861) scale(29.1418)">
<stop stop-color="#392108"/>
<stop offset="1" stop-color="#C87928" stop-opacity="0"/>
</radialGradient>
<linearGradient id="paint11_linear_111_37" x1="69.7198" y1="62.5" x2="69.7198" y2="87.5" gradientUnits="userSpaceOnUse">
<stop stop-color="#553B3E"/>
<stop offset="1" stop-color="#3D2432"/>
</linearGradient>
<linearGradient id="paint12_linear_111_37" x1="69.7198" y1="62.5" x2="69.7198" y2="87.5" gradientUnits="userSpaceOnUse">
<stop stop-color="#553B3E"/>
<stop offset="1" stop-color="#3D2432"/>
</linearGradient>
<linearGradient id="paint13_linear_111_37" x1="100" y1="121.875" x2="100" y2="128.125" gradientUnits="userSpaceOnUse">
<stop stop-color="#4F3C43"/>
<stop offset="1" stop-color="#512756"/>
</linearGradient>
</defs>
</svg>
