<svg width="100" height="100" viewBox="0 0 200 200" fill="none" xmlns="http://www.w3.org/2000/svg">
<path d="M99.993 187.486C158.333 187.486 187.486 148.314 187.486 99.993C187.486 51.672 158.333 12.5 99.993 12.5C41.6527 12.5 12.5 51.672 12.5 99.993C12.5 148.314 41.6527 187.486 99.993 187.486Z" fill="url(#paint0_radial_111_30)"/>
<path d="M99.993 187.486C158.333 187.486 187.486 148.314 187.486 99.993C187.486 51.672 158.333 12.5 99.993 12.5C41.6527 12.5 12.5 51.672 12.5 99.993C12.5 148.314 41.6527 187.486 99.993 187.486Z" fill="url(#paint1_radial_111_30)"/>
<path d="M99.993 187.486C158.333 187.486 187.486 148.314 187.486 99.993C187.486 51.672 158.333 12.5 99.993 12.5C41.6527 12.5 12.5 51.672 12.5 99.993C12.5 148.314 41.6527 187.486 99.993 187.486Z" fill="url(#paint2_radial_111_30)"/>
<path d="M99.993 187.486C158.333 187.486 187.486 148.314 187.486 99.993C187.486 51.672 158.333 12.5 99.993 12.5C41.6527 12.5 12.5 51.672 12.5 99.993C12.5 148.314 41.6527 187.486 99.993 187.486Z" fill="url(#paint3_radial_111_30)" fill-opacity="0.6"/>
<path d="M99.993 187.486C158.333 187.486 187.486 148.314 187.486 99.993C187.486 51.672 158.333 12.5 99.993 12.5C41.6527 12.5 12.5 51.672 12.5 99.993C12.5 148.314 41.6527 187.486 99.993 187.486Z" fill="url(#paint4_radial_111_30)"/>
<path d="M99.993 187.486C158.333 187.486 187.486 148.314 187.486 99.993C187.486 51.672 158.333 12.5 99.993 12.5C41.6527 12.5 12.5 51.672 12.5 99.993C12.5 148.314 41.6527 187.486 99.993 187.486Z" fill="url(#paint5_radial_111_30)"/>
<path d="M99.993 187.486C158.333 187.486 187.486 148.314 187.486 99.993C187.486 51.672 158.333 12.5 99.993 12.5C41.6527 12.5 12.5 51.672 12.5 99.993C12.5 148.314 41.6527 187.486 99.993 187.486Z" fill="url(#paint6_radial_111_30)"/>
<path d="M99.993 187.486C158.333 187.486 187.486 148.314 187.486 99.993C187.486 51.672 158.333 12.5 99.993 12.5C41.6527 12.5 12.5 51.672 12.5 99.993C12.5 148.314 41.6527 187.486 99.993 187.486Z" fill="url(#paint7_radial_111_30)"/>
<path d="M99.993 187.486C158.333 187.486 187.486 148.314 187.486 99.993C187.486 51.672 158.333 12.5 99.993 12.5C41.6527 12.5 12.5 51.672 12.5 99.993C12.5 148.314 41.6527 187.486 99.993 187.486Z" fill="url(#paint8_radial_111_30)"/>
<path d="M99.993 187.486C158.333 187.486 187.486 148.314 187.486 99.993C187.486 51.672 158.333 12.5 99.993 12.5C41.6527 12.5 12.5 51.672 12.5 99.993C12.5 148.314 41.6527 187.486 99.993 187.486Z" fill="url(#paint9_radial_111_30)"/>
<path d="M99.993 187.486C158.333 187.486 187.486 148.314 187.486 99.993C187.486 51.672 158.333 12.5 99.993 12.5C41.6527 12.5 12.5 51.672 12.5 99.993C12.5 148.314 41.6527 187.486 99.993 187.486Z" fill="url(#paint10_radial_111_30)"/>
<path d="M99.993 187.486C158.333 187.486 187.486 148.314 187.486 99.993C187.486 51.672 158.333 12.5 99.993 12.5C41.6527 12.5 12.5 51.672 12.5 99.993C12.5 148.314 41.6527 187.486 99.993 187.486Z" fill="url(#paint11_radial_111_30)"/>
<path d="M99.993 187.486C158.333 187.486 187.486 148.314 187.486 99.993C187.486 51.672 158.333 12.5 99.993 12.5C41.6527 12.5 12.5 51.672 12.5 99.993C12.5 148.314 41.6527 187.486 99.993 187.486Z" fill="url(#paint12_radial_111_30)"/>
<path d="M99.993 187.486C158.333 187.486 187.486 148.314 187.486 99.993C187.486 51.672 158.333 12.5 99.993 12.5C41.6527 12.5 12.5 51.672 12.5 99.993C12.5 148.314 41.6527 187.486 99.993 187.486Z" fill="url(#paint13_radial_111_30)"/>
<path d="M58.6525 78.687L31.9774 99.4343C31.7012 99.6491 31.3017 99.4308 31.3334 99.0823L34.2571 66.9219C34.3288 66.1335 33.9286 65.377 33.2366 64.9926L7.62899 50.7661C7.07667 50.4593 7.12804 49.6488 7.71468 49.4141L36.4941 37.9024C37.1216 37.6514 37.5799 37.1004 37.7125 36.4376L43.4342 7.82907C43.5562 7.21879 44.3428 7.04038 44.7162 7.53827L61.8304 30.3572C62.2466 30.9121 62.9206 31.2118 63.6115 31.149L95.9789 28.2065C96.3241 28.1751 96.5431 28.5676 96.3351 28.8448L78.7994 52.2258C78.3806 52.7842 78.2832 53.5205 78.5424 54.1686L90.4536 83.9465C90.5273 84.1308 90.3671 84.3234 90.1725 84.2845L60.2726 78.3045C59.7026 78.1905 59.1113 78.3301 58.6525 78.687Z" fill="url(#paint14_linear_111_30)"/>
<path d="M58.6525 78.687L31.9774 99.4343C31.7012 99.6491 31.3017 99.4308 31.3334 99.0823L34.2571 66.9219C34.3288 66.1335 33.9286 65.377 33.2366 64.9926L7.62899 50.7661C7.07667 50.4593 7.12804 49.6488 7.71468 49.4141L36.4941 37.9024C37.1216 37.6514 37.5799 37.1004 37.7125 36.4376L43.4342 7.82907C43.5562 7.21879 44.3428 7.04038 44.7162 7.53827L61.8304 30.3572C62.2466 30.9121 62.9206 31.2118 63.6115 31.149L95.9789 28.2065C96.3241 28.1751 96.5431 28.5676 96.3351 28.8448L78.7994 52.2258C78.3806 52.7842 78.2832 53.5205 78.5424 54.1686L90.4536 83.9465C90.5273 84.1308 90.3671 84.3234 90.1725 84.2845L60.2726 78.3045C59.7026 78.1905 59.1113 78.3301 58.6525 78.687Z" fill="url(#paint15_radial_111_30)"/>
<path d="M58.6525 78.687L31.9774 99.4343C31.7012 99.6491 31.3017 99.4308 31.3334 99.0823L34.2571 66.9219C34.3288 66.1335 33.9286 65.377 33.2366 64.9926L7.62899 50.7661C7.07667 50.4593 7.12804 49.6488 7.71468 49.4141L36.4941 37.9024C37.1216 37.6514 37.5799 37.1004 37.7125 36.4376L43.4342 7.82907C43.5562 7.21879 44.3428 7.04038 44.7162 7.53827L61.8304 30.3572C62.2466 30.9121 62.9206 31.2118 63.6115 31.149L95.9789 28.2065C96.3241 28.1751 96.5431 28.5676 96.3351 28.8448L78.7994 52.2258C78.3806 52.7842 78.2832 53.5205 78.5424 54.1686L90.4536 83.9465C90.5273 84.1308 90.3671 84.3234 90.1725 84.2845L60.2726 78.3045C59.7026 78.1905 59.1113 78.3301 58.6525 78.687Z" fill="url(#paint16_radial_111_30)"/>
<path d="M141.348 78.687L168.023 99.4343C168.299 99.6491 168.698 99.4308 168.667 99.0823L165.743 66.9219C165.671 66.1335 166.071 65.377 166.763 64.9926L192.371 50.7661C192.923 50.4593 192.872 49.6488 192.285 49.4141L163.506 37.9024C162.878 37.6514 162.42 37.1004 162.288 36.4376L156.566 7.82907C156.444 7.21879 155.657 7.04038 155.284 7.53827L138.17 30.3572C137.753 30.9121 137.079 31.2118 136.389 31.149L104.021 28.2065C103.676 28.1751 103.457 28.5676 103.665 28.8448L121.201 52.2258C121.619 52.7842 121.717 53.5205 121.458 54.1686L109.546 83.9465C109.473 84.1308 109.633 84.3234 109.828 84.2845L139.727 78.3045C140.297 78.1905 140.889 78.3301 141.348 78.687Z" fill="url(#paint17_linear_111_30)"/>
<path d="M141.348 78.687L168.023 99.4343C168.299 99.6491 168.698 99.4308 168.667 99.0823L165.743 66.9219C165.671 66.1335 166.071 65.377 166.763 64.9926L192.371 50.7661C192.923 50.4593 192.872 49.6488 192.285 49.4141L163.506 37.9024C162.878 37.6514 162.42 37.1004 162.288 36.4376L156.566 7.82907C156.444 7.21879 155.657 7.04038 155.284 7.53827L138.17 30.3572C137.753 30.9121 137.079 31.2118 136.389 31.149L104.021 28.2065C103.676 28.1751 103.457 28.5676 103.665 28.8448L121.201 52.2258C121.619 52.7842 121.717 53.5205 121.458 54.1686L109.546 83.9465C109.473 84.1308 109.633 84.3234 109.828 84.2845L139.727 78.3045C140.297 78.1905 140.889 78.3301 141.348 78.687Z" fill="url(#paint18_radial_111_30)"/>
<path d="M141.348 78.687L168.023 99.4343C168.299 99.6491 168.698 99.4308 168.667 99.0823L165.743 66.9219C165.671 66.1335 166.071 65.377 166.763 64.9926L192.371 50.7661C192.923 50.4593 192.872 49.6488 192.285 49.4141L163.506 37.9024C162.878 37.6514 162.42 37.1004 162.288 36.4376L156.566 7.82907C156.444 7.21879 155.657 7.04038 155.284 7.53827L138.17 30.3572C137.753 30.9121 137.079 31.2118 136.389 31.149L104.021 28.2065C103.676 28.1751 103.457 28.5676 103.665 28.8448L121.201 52.2258C121.619 52.7842 121.717 53.5205 121.458 54.1686L109.546 83.9465C109.473 84.1308 109.633 84.3234 109.828 84.2845L139.727 78.3045C140.297 78.1905 140.889 78.3301 141.348 78.687Z" fill="url(#paint19_radial_111_30)"/>
<path d="M141.348 78.687L168.023 99.4343C168.299 99.6491 168.698 99.4308 168.667 99.0823L165.743 66.9219C165.671 66.1335 166.071 65.377 166.763 64.9926L192.371 50.7661C192.923 50.4593 192.872 49.6488 192.285 49.4141L163.506 37.9024C162.878 37.6514 162.42 37.1004 162.288 36.4376L156.566 7.82907C156.444 7.21879 155.657 7.04038 155.284 7.53827L138.17 30.3572C137.753 30.9121 137.079 31.2118 136.389 31.149L104.021 28.2065C103.676 28.1751 103.457 28.5676 103.665 28.8448L121.201 52.2258C121.619 52.7842 121.717 53.5205 121.458 54.1686L109.546 83.9465C109.473 84.1308 109.633 84.3234 109.828 84.2845L139.727 78.3045C140.297 78.1905 140.889 78.3301 141.348 78.687Z" fill="url(#paint20_radial_111_30)"/>
<path d="M141.348 78.687L168.023 99.4343C168.299 99.6491 168.698 99.4308 168.667 99.0823L165.743 66.9219C165.671 66.1335 166.071 65.377 166.763 64.9926L192.371 50.7661C192.923 50.4593 192.872 49.6488 192.285 49.4141L163.506 37.9024C162.878 37.6514 162.42 37.1004 162.288 36.4376L156.566 7.82907C156.444 7.21879 155.657 7.04038 155.284 7.53827L138.17 30.3572C137.753 30.9121 137.079 31.2118 136.389 31.149L104.021 28.2065C103.676 28.1751 103.457 28.5676 103.665 28.8448L121.201 52.2258C121.619 52.7842 121.717 53.5205 121.458 54.1686L109.546 83.9465C109.473 84.1308 109.633 84.3234 109.828 84.2845L139.727 78.3045C140.297 78.1905 140.889 78.3301 141.348 78.687Z" fill="url(#paint21_radial_111_30)"/>
<path d="M141.348 78.687L168.023 99.4343C168.299 99.6491 168.698 99.4308 168.667 99.0823L165.743 66.9219C165.671 66.1335 166.071 65.377 166.763 64.9926L192.371 50.7661C192.923 50.4593 192.872 49.6488 192.285 49.4141L163.506 37.9024C162.878 37.6514 162.42 37.1004 162.288 36.4376L156.566 7.82907C156.444 7.21879 155.657 7.04038 155.284 7.53827L138.17 30.3572C137.753 30.9121 137.079 31.2118 136.389 31.149L104.021 28.2065C103.676 28.1751 103.457 28.5676 103.665 28.8448L121.201 52.2258C121.619 52.7842 121.717 53.5205 121.458 54.1686L109.546 83.9465C109.473 84.1308 109.633 84.3234 109.828 84.2845L139.727 78.3045C140.297 78.1905 140.889 78.3301 141.348 78.687Z" fill="url(#paint22_radial_111_30)"/>
<path d="M141.348 78.687L168.023 99.4343C168.299 99.6491 168.698 99.4308 168.667 99.0823L165.743 66.9219C165.671 66.1335 166.071 65.377 166.763 64.9926L192.371 50.7661C192.923 50.4593 192.872 49.6488 192.285 49.4141L163.506 37.9024C162.878 37.6514 162.42 37.1004 162.288 36.4376L156.566 7.82907C156.444 7.21879 155.657 7.04038 155.284 7.53827L138.17 30.3572C137.753 30.9121 137.079 31.2118 136.389 31.149L104.021 28.2065C103.676 28.1751 103.457 28.5676 103.665 28.8448L121.201 52.2258C121.619 52.7842 121.717 53.5205 121.458 54.1686L109.546 83.9465C109.473 84.1308 109.633 84.3234 109.828 84.2845L139.727 78.3045C140.297 78.1905 140.889 78.3301 141.348 78.687Z" fill="url(#paint23_radial_111_30)"/>
<path d="M100 162.5C43.75 162.5 43.75 106.25 43.75 106.25H156.25C156.25 106.25 156.25 162.5 100 162.5Z" fill="url(#paint24_radial_111_30)"/>
<path d="M50 114.625V106.25H150V114.625C150 115.177 149.552 115.625 149 115.625H51C50.4477 115.625 50 115.177 50 114.625Z" fill="url(#paint25_linear_111_30)"/>
<defs>
<radialGradient id="paint0_radial_111_30" cx="0" cy="0" r="1" gradientUnits="userSpaceOnUse" gradientTransform="translate(159.375 56.25) rotate(132.839) scale(234.396)">
<stop stop-color="#FFF478"/>
<stop offset="0.474827" stop-color="#FFB02E"/>
<stop offset="1" stop-color="#F70A8D"/>
</radialGradient>
<radialGradient id="paint1_radial_111_30" cx="0" cy="0" r="1" gradientUnits="userSpaceOnUse" gradientTransform="translate(159.375 56.25) rotate(131.878) scale(243.429)">
<stop stop-color="#FFF478"/>
<stop offset="0.474827" stop-color="#FFB02E"/>
<stop offset="1" stop-color="#F70A8D"/>
</radialGradient>
<radialGradient id="paint2_radial_111_30" cx="0" cy="0" r="1" gradientUnits="userSpaceOnUse" gradientTransform="translate(100 78.125) rotate(101.31) scale(111.541 142.863)">
<stop offset="0.787821" stop-color="#F59639" stop-opacity="0"/>
<stop offset="0.972509" stop-color="#FF7DCE"/>
</radialGradient>
<radialGradient id="paint3_radial_111_30" cx="0" cy="0" r="1" gradientUnits="userSpaceOnUse" gradientTransform="translate(112.5 87.5) rotate(135) scale(256.326)">
<stop offset="0.314853" stop-opacity="0"/>
<stop offset="1"/>
</radialGradient>
<radialGradient id="paint4_radial_111_30" cx="0" cy="0" r="1" gradientUnits="userSpaceOnUse" gradientTransform="translate(100 106.25) rotate(77.692) scale(175.918)">
<stop offset="0.507903" stop-color="#7D6133" stop-opacity="0"/>
<stop offset="1" stop-color="#715B32"/>
</radialGradient>
<radialGradient id="paint5_radial_111_30" cx="0" cy="0" r="1" gradientUnits="userSpaceOnUse" gradientTransform="translate(103.125 103.125) rotate(55.7131) scale(83.2095 60.3145)">
<stop stop-color="#FFB849"/>
<stop offset="1" stop-color="#FFB847" stop-opacity="0"/>
</radialGradient>
<radialGradient id="paint6_radial_111_30" cx="0" cy="0" r="1" gradientUnits="userSpaceOnUse" gradientTransform="translate(128.125 112.5) rotate(9.86581) scale(72.9539)">
<stop stop-color="#FFA64B"/>
<stop offset="0.900412" stop-color="#FFAE46" stop-opacity="0"/>
</radialGradient>
<radialGradient id="paint7_radial_111_30" cx="0" cy="0" r="1" gradientUnits="userSpaceOnUse" gradientTransform="translate(109.375 93.75) rotate(43.9708) scale(369.081)">
<stop offset="0.185425" stop-opacity="0"/>
<stop offset="1" stop-opacity="0.4"/>
</radialGradient>
<radialGradient id="paint8_radial_111_30" cx="0" cy="0" r="1" gradientUnits="userSpaceOnUse" gradientTransform="translate(144.825 81.7697) rotate(136.169) scale(7.76649 24.9034)">
<stop stop-color="#EC812A" stop-opacity="0.76"/>
<stop offset="0.572289" stop-color="#EC812A" stop-opacity="0.260417"/>
<stop offset="0.794087" stop-color="#EC812A" stop-opacity="0.111011"/>
<stop offset="1" stop-color="#EC812A" stop-opacity="0"/>
</radialGradient>
<radialGradient id="paint9_radial_111_30" cx="0" cy="0" r="1" gradientUnits="userSpaceOnUse" gradientTransform="translate(135.623 76.6111) rotate(103.824) scale(10.4371 17.4479)">
<stop stop-color="#EC812A"/>
<stop offset="0.359734" stop-color="#EC812A" stop-opacity="0.52"/>
<stop offset="0.792681" stop-color="#EC812A" stop-opacity="0.125447"/>
<stop offset="1" stop-color="#EC812A" stop-opacity="0"/>
</radialGradient>
<radialGradient id="paint10_radial_111_30" cx="0" cy="0" r="1" gradientUnits="userSpaceOnUse" gradientTransform="translate(118.659 64.5533) rotate(-162.668) scale(11.9269 24.9338)">
<stop stop-color="#EC812A" stop-opacity="0.78"/>
<stop offset="0.451488" stop-color="#EC812A" stop-opacity="0.49"/>
<stop offset="0.747195" stop-color="#EC812A" stop-opacity="0.12266"/>
<stop offset="1" stop-color="#EC812A" stop-opacity="0"/>
</radialGradient>
<radialGradient id="paint11_radial_111_30" cx="0" cy="0" r="1" gradientUnits="userSpaceOnUse" gradientTransform="translate(117.64 50.5508) rotate(134.735) scale(8.57877 19.4706)">
<stop stop-color="#EC812A" stop-opacity="0.72"/>
<stop offset="0.65285" stop-color="#EC812A" stop-opacity="0.192708"/>
<stop offset="1" stop-color="#EC812A" stop-opacity="0"/>
</radialGradient>
<radialGradient id="paint12_radial_111_30" cx="0" cy="0" r="1" gradientUnits="userSpaceOnUse" gradientTransform="translate(67.9408 79.5917) rotate(99.0872) scale(9.32231 27.421)">
<stop stop-color="#C85F27" stop-opacity="0.65"/>
<stop offset="0.482815" stop-color="#C85F27" stop-opacity="0.260417"/>
<stop offset="0.806099" stop-color="#C85F27" stop-opacity="0.07"/>
<stop offset="1" stop-color="#C85F27" stop-opacity="0"/>
</radialGradient>
<radialGradient id="paint13_radial_111_30" cx="0" cy="0" r="1" gradientUnits="userSpaceOnUse" gradientTransform="translate(56.4725 79.0749) rotate(62.5603) scale(8.02301 23.2865)">
<stop stop-color="#C85F27" stop-opacity="0.65"/>
<stop offset="0.285517" stop-color="#C85F27" stop-opacity="0.260417"/>
<stop offset="0.727885" stop-color="#C85F27" stop-opacity="0.07"/>
<stop offset="1" stop-color="#C85F27" stop-opacity="0"/>
</radialGradient>
<linearGradient id="paint14_linear_111_30" x1="46.875" y1="6.25" x2="62.5" y2="93.75" gradientUnits="userSpaceOnUse">
<stop stop-color="#7912B2"/>
<stop offset="1" stop-color="#CF1DA1"/>
</linearGradient>
<radialGradient id="paint15_radial_111_30" cx="0" cy="0" r="1" gradientUnits="userSpaceOnUse" gradientTransform="translate(57.5387 24.1197) rotate(135) scale(4.24726 15.5081)">
<stop stop-color="#A82D9C"/>
<stop offset="1" stop-color="#A82D9C" stop-opacity="0"/>
</radialGradient>
<radialGradient id="paint16_radial_111_30" cx="0" cy="0" r="1" gradientUnits="userSpaceOnUse" gradientTransform="translate(76.6029 30.1262) rotate(87.6141) scale(3.13656 19.3684)">
<stop stop-color="#A82D9C"/>
<stop offset="1" stop-color="#A82D9C" stop-opacity="0"/>
</radialGradient>
<linearGradient id="paint17_linear_111_30" x1="137.5" y1="15.625" x2="140.625" y2="90.625" gradientUnits="userSpaceOnUse">
<stop stop-color="#7912B2"/>
<stop offset="1" stop-color="#CF1DA1"/>
</linearGradient>
<radialGradient id="paint18_radial_111_30" cx="0" cy="0" r="1" gradientUnits="userSpaceOnUse" gradientTransform="translate(181.084 44.9674) rotate(116.565) scale(1.94294 13.7948)">
<stop stop-color="#B51AA6"/>
<stop offset="0.432292" stop-color="#B51AA6" stop-opacity="0.21875"/>
<stop offset="1" stop-color="#B51AA6" stop-opacity="0"/>
</radialGradient>
<radialGradient id="paint19_radial_111_30" cx="0" cy="0" r="1" gradientUnits="userSpaceOnUse" gradientTransform="translate(172.588 41.6849) rotate(116.456) scale(3.20017 13.3788)">
<stop stop-color="#B51AA6"/>
<stop offset="0.600176" stop-color="#B51AA6" stop-opacity="0.21875"/>
<stop offset="1" stop-color="#B51AA6" stop-opacity="0"/>
</radialGradient>
<radialGradient id="paint20_radial_111_30" cx="0" cy="0" r="1" gradientUnits="userSpaceOnUse" gradientTransform="translate(184.484 45.5732) rotate(112.521) scale(3.46672 14.4932)">
<stop offset="0.145752" stop-color="#B51AA6"/>
<stop offset="0.761264" stop-color="#B51AA6" stop-opacity="0.21875"/>
<stop offset="1" stop-color="#B51AA6" stop-opacity="0"/>
</radialGradient>
<radialGradient id="paint21_radial_111_30" cx="0" cy="0" r="1" gradientUnits="userSpaceOnUse" gradientTransform="translate(165.646 37.8369) rotate(127.504) scale(3.39568 7.95527)">
<stop stop-color="#B51AA6"/>
<stop offset="0.565981" stop-color="#B51AA6" stop-opacity="0.21875"/>
<stop offset="0.841141" stop-color="#B51AA6" stop-opacity="0"/>
</radialGradient>
<radialGradient id="paint22_radial_111_30" cx="0" cy="0" r="1" gradientUnits="userSpaceOnUse" gradientTransform="translate(162.383 34.4253) rotate(152.269) scale(2.60089 8.06322)">
<stop stop-color="#B51AA6"/>
<stop offset="0.546247" stop-color="#B51AA6" stop-opacity="0.21875"/>
<stop offset="1" stop-color="#B51AA6" stop-opacity="0"/>
</radialGradient>
<radialGradient id="paint23_radial_111_30" cx="0" cy="0" r="1" gradientUnits="userSpaceOnUse" gradientTransform="translate(160.271 25.8123) rotate(168.178) scale(3.43134 18.6768)">
<stop offset="0.00764343" stop-color="#B51AA6"/>
<stop offset="0.704661" stop-color="#B51AA6" stop-opacity="0.21875"/>
<stop offset="1" stop-color="#B51AA6" stop-opacity="0"/>
</radialGradient>
<radialGradient id="paint24_radial_111_30" cx="0" cy="0" r="1" gradientUnits="userSpaceOnUse" gradientTransform="translate(100 175) rotate(-90) scale(68.75 137.5)">
<stop stop-color="#F70A8D"/>
<stop offset="1" stop-color="#89029C"/>
</radialGradient>
<linearGradient id="paint25_linear_111_30" x1="100" y1="106.25" x2="100" y2="115.625" gradientUnits="userSpaceOnUse">
<stop stop-color="#D5A8FE"/>
<stop offset="1" stop-color="white"/>
</linearGradient>
</defs>
</svg>
