<svg width="100" height="100" viewBox="0 0 200 200" fill="none" xmlns="http://www.w3.org/2000/svg">
<path d="M99.993 187.486C158.333 187.486 187.486 148.314 187.486 99.993C187.486 51.672 158.333 12.5 99.993 12.5C41.6527 12.5 12.5 51.672 12.5 99.993C12.5 148.314 41.6527 187.486 99.993 187.486Z" fill="url(#paint0_radial_111_13)"/>
<path d="M99.993 187.486C158.333 187.486 187.486 148.314 187.486 99.993C187.486 51.672 158.333 12.5 99.993 12.5C41.6527 12.5 12.5 51.672 12.5 99.993C12.5 148.314 41.6527 187.486 99.993 187.486Z" fill="url(#paint1_radial_111_13)"/>
<path d="M99.993 187.486C158.333 187.486 187.486 148.314 187.486 99.993C187.486 51.672 158.333 12.5 99.993 12.5C41.6527 12.5 12.5 51.672 12.5 99.993C12.5 148.314 41.6527 187.486 99.993 187.486Z" fill="url(#paint2_radial_111_13)" fill-opacity="0.6"/>
<path d="M99.993 187.486C158.333 187.486 187.486 148.314 187.486 99.993C187.486 51.672 158.333 12.5 99.993 12.5C41.6527 12.5 12.5 51.672 12.5 99.993C12.5 148.314 41.6527 187.486 99.993 187.486Z" fill="url(#paint3_radial_111_13)"/>
<path d="M99.993 187.486C158.333 187.486 187.486 148.314 187.486 99.993C187.486 51.672 158.333 12.5 99.993 12.5C41.6527 12.5 12.5 51.672 12.5 99.993C12.5 148.314 41.6527 187.486 99.993 187.486Z" fill="url(#paint4_radial_111_13)"/>
<path d="M99.993 187.486C158.333 187.486 187.486 148.314 187.486 99.993C187.486 51.672 158.333 12.5 99.993 12.5C41.6527 12.5 12.5 51.672 12.5 99.993C12.5 148.314 41.6527 187.486 99.993 187.486Z" fill="url(#paint5_radial_111_13)"/>
<path d="M99.993 187.486C158.333 187.486 187.486 148.314 187.486 99.993C187.486 51.672 158.333 12.5 99.993 12.5C41.6527 12.5 12.5 51.672 12.5 99.993C12.5 148.314 41.6527 187.486 99.993 187.486Z" fill="url(#paint6_radial_111_13)"/>
<path d="M99.993 187.486C158.333 187.486 187.486 148.314 187.486 99.993C187.486 51.672 158.333 12.5 99.993 12.5C41.6527 12.5 12.5 51.672 12.5 99.993C12.5 148.314 41.6527 187.486 99.993 187.486Z" fill="url(#paint7_radial_111_13)"/>
<path d="M99.993 187.486C158.333 187.486 187.486 148.314 187.486 99.993C187.486 51.672 158.333 12.5 99.993 12.5C41.6527 12.5 12.5 51.672 12.5 99.993C12.5 148.314 41.6527 187.486 99.993 187.486Z" fill="url(#paint8_radial_111_13)"/>
<path d="M99.993 187.486C158.333 187.486 187.486 148.314 187.486 99.993C187.486 51.672 158.333 12.5 99.993 12.5C41.6527 12.5 12.5 51.672 12.5 99.993C12.5 148.314 41.6527 187.486 99.993 187.486Z" fill="url(#paint9_radial_111_13)"/>
<path d="M99.993 187.486C158.333 187.486 187.486 148.314 187.486 99.993C187.486 51.672 158.333 12.5 99.993 12.5C41.6527 12.5 12.5 51.672 12.5 99.993C12.5 148.314 41.6527 187.486 99.993 187.486Z" fill="url(#paint10_radial_111_13)"/>
<path d="M99.993 187.486C158.333 187.486 187.486 148.314 187.486 99.993C187.486 51.672 158.333 12.5 99.993 12.5C41.6527 12.5 12.5 51.672 12.5 99.993C12.5 148.314 41.6527 187.486 99.993 187.486Z" fill="url(#paint11_radial_111_13)"/>
<path d="M100 162.5C37.5 162.5 37.5 100 37.5 100H162.5C162.5 100 162.5 162.5 100 162.5Z" fill="url(#paint12_radial_111_13)"/>
<path d="M43.75 107.375V100H156.25V107.375C156.25 108.48 155.355 109.375 154.25 109.375H45.75C44.6454 109.375 43.75 108.48 43.75 107.375Z" fill="url(#paint13_linear_111_13)"/>
<path d="M59.0466 86.8122C55.9592 88.3559 52.205 87.1045 50.6613 84.0171C49.1176 80.9297 50.369 77.1755 53.4564 75.6318L67.2471 68.7365L78.1249 65.6251L87.5015 68.7365C87.496 71.0982 86.1596 73.2557 84.0466 74.3122L59.0466 86.8122Z" fill="url(#paint14_linear_111_13)"/>
<path d="M59.0466 86.8122C55.9592 88.3559 52.205 87.1045 50.6613 84.0171C49.1176 80.9297 50.369 77.1755 53.4564 75.6318L67.2471 68.7365L78.1249 65.6251L87.5015 68.7365C87.496 71.0982 86.1596 73.2557 84.0466 74.3122L59.0466 86.8122Z" fill="url(#paint15_linear_111_13)"/>
<path d="M59.0466 86.8122C55.9592 88.3559 52.205 87.1045 50.6613 84.0171C49.1176 80.9297 50.369 77.1755 53.4564 75.6318L67.2471 68.7365L78.1249 65.6251L87.5015 68.7365C87.496 71.0982 86.1596 73.2557 84.0466 74.3122L59.0466 86.8122Z" fill="url(#paint16_radial_111_13)"/>
<path d="M59.0466 50.6612C55.9592 49.1175 52.205 50.3689 50.6613 53.4563C49.1176 56.5436 50.369 60.2979 53.4564 61.8415L67.2471 68.7369H87.5015C87.496 66.3752 86.1596 64.2177 84.0466 63.1612L59.0466 50.6612Z" fill="url(#paint17_linear_111_13)"/>
<path d="M59.0466 50.6612C55.9592 49.1175 52.205 50.3689 50.6613 53.4563C49.1176 56.5436 50.369 60.2979 53.4564 61.8415L67.2471 68.7369H87.5015C87.496 66.3752 86.1596 64.2177 84.0466 63.1612L59.0466 50.6612Z" fill="url(#paint18_linear_111_13)"/>
<path d="M59.0466 50.6612C55.9592 49.1175 52.205 50.3689 50.6613 53.4563C49.1176 56.5436 50.369 60.2979 53.4564 61.8415L67.2471 68.7369H87.5015C87.496 66.3752 86.1596 64.2177 84.0466 63.1612L59.0466 50.6612Z" fill="url(#paint19_radial_111_13)"/>
<path d="M140.857 86.8122C143.945 88.3559 147.699 87.1045 149.242 84.0171C150.786 80.9297 149.535 77.1755 146.447 75.6318L132.657 68.7365L121.875 65.6251L112.402 68.7365C112.408 71.0982 113.744 73.2557 115.857 74.3122L140.857 86.8122Z" fill="url(#paint20_linear_111_13)"/>
<path d="M140.857 86.8122C143.945 88.3559 147.699 87.1045 149.242 84.0171C150.786 80.9297 149.535 77.1755 146.447 75.6318L132.657 68.7365L121.875 65.6251L112.402 68.7365C112.408 71.0982 113.744 73.2557 115.857 74.3122L140.857 86.8122Z" fill="url(#paint21_linear_111_13)"/>
<path d="M140.857 50.6612C143.945 49.1175 147.699 50.3689 149.242 53.4563C150.786 56.5436 149.535 60.2979 146.447 61.8415L132.657 68.7369H112.402C112.408 66.3752 113.744 64.2177 115.857 63.1612L140.857 50.6612Z" fill="url(#paint22_linear_111_13)"/>
<path d="M140.857 50.6612C143.945 49.1175 147.699 50.3689 149.242 53.4563C150.786 56.5436 149.535 60.2979 146.447 61.8415L132.657 68.7369H112.402C112.408 66.3752 113.744 64.2177 115.857 63.1612L140.857 50.6612Z" fill="url(#paint23_radial_111_13)"/>
<path d="M140.857 50.6612C143.945 49.1175 147.699 50.3689 149.242 53.4563C150.786 56.5436 149.535 60.2979 146.447 61.8415L132.657 68.7369H112.402C112.408 66.3752 113.744 64.2177 115.857 63.1612L140.857 50.6612Z" fill="url(#paint24_radial_111_13)"/>
<path d="M140.857 50.6612C143.945 49.1175 147.699 50.3689 149.242 53.4563C150.786 56.5436 149.535 60.2979 146.447 61.8415L132.657 68.7369H112.402C112.408 66.3752 113.744 64.2177 115.857 63.1612L140.857 50.6612Z" fill="url(#paint25_linear_111_13)"/>
<defs>
<radialGradient id="paint0_radial_111_13" cx="0" cy="0" r="1" gradientUnits="userSpaceOnUse" gradientTransform="translate(159.375 56.25) rotate(131.878) scale(243.429)">
<stop stop-color="#FFF478"/>
<stop offset="0.474827" stop-color="#FFB02E"/>
<stop offset="1" stop-color="#F70A8D"/>
</radialGradient>
<radialGradient id="paint1_radial_111_13" cx="0" cy="0" r="1" gradientUnits="userSpaceOnUse" gradientTransform="translate(100 78.125) rotate(101.31) scale(111.541 142.863)">
<stop offset="0.787821" stop-color="#F59639" stop-opacity="0"/>
<stop offset="0.972509" stop-color="#FF7DCE"/>
</radialGradient>
<radialGradient id="paint2_radial_111_13" cx="0" cy="0" r="1" gradientUnits="userSpaceOnUse" gradientTransform="translate(112.5 87.5) rotate(135) scale(256.326)">
<stop offset="0.314853" stop-opacity="0"/>
<stop offset="1"/>
</radialGradient>
<radialGradient id="paint3_radial_111_13" cx="0" cy="0" r="1" gradientUnits="userSpaceOnUse" gradientTransform="translate(100 106.25) rotate(77.692) scale(175.918)">
<stop offset="0.507903" stop-color="#7D6133" stop-opacity="0"/>
<stop offset="1" stop-color="#715B32"/>
</radialGradient>
<radialGradient id="paint4_radial_111_13" cx="0" cy="0" r="1" gradientUnits="userSpaceOnUse" gradientTransform="translate(103.125 103.125) rotate(55.7131) scale(83.2095 60.3145)">
<stop stop-color="#FFB849"/>
<stop offset="1" stop-color="#FFB847" stop-opacity="0"/>
</radialGradient>
<radialGradient id="paint5_radial_111_13" cx="0" cy="0" r="1" gradientUnits="userSpaceOnUse" gradientTransform="translate(128.125 112.5) rotate(9.86581) scale(72.9539)">
<stop stop-color="#FFA64B"/>
<stop offset="0.900412" stop-color="#FFAE46" stop-opacity="0"/>
</radialGradient>
<radialGradient id="paint6_radial_111_13" cx="0" cy="0" r="1" gradientUnits="userSpaceOnUse" gradientTransform="translate(109.375 93.75) rotate(43.9708) scale(369.081)">
<stop offset="0.185425" stop-opacity="0"/>
<stop offset="1" stop-opacity="0.4"/>
</radialGradient>
<radialGradient id="paint7_radial_111_13" cx="0" cy="0" r="1" gradientUnits="userSpaceOnUse" gradientTransform="translate(135.963 80.4198) rotate(119.867) scale(11.3268 17.2261)">
<stop stop-color="#D07E2D"/>
<stop offset="1" stop-color="#D98833" stop-opacity="0"/>
</radialGradient>
<radialGradient id="paint8_radial_111_13" cx="0" cy="0" r="1" gradientUnits="userSpaceOnUse" gradientTransform="translate(122.784 73.8666) rotate(128.66) scale(10.8632 16.5211)">
<stop stop-color="#D07E2D"/>
<stop offset="1" stop-color="#D98833" stop-opacity="0"/>
</radialGradient>
<radialGradient id="paint9_radial_111_13" cx="0" cy="0" r="1" gradientUnits="userSpaceOnUse" gradientTransform="translate(134.088 63.3858) rotate(65.6376) scale(9.72265 14.7865)">
<stop stop-color="#D07E2D"/>
<stop offset="1" stop-color="#D98833" stop-opacity="0"/>
</radialGradient>
<radialGradient id="paint10_radial_111_13" cx="0" cy="0" r="1" gradientUnits="userSpaceOnUse" gradientTransform="translate(61.4076 63.7124) rotate(110.225) scale(9.51608 22.8038)">
<stop stop-color="#D07E2D"/>
<stop offset="1" stop-color="#D98833" stop-opacity="0"/>
</radialGradient>
<radialGradient id="paint11_radial_111_13" cx="0" cy="0" r="1" gradientUnits="userSpaceOnUse" gradientTransform="translate(59.7542 80.1263) rotate(70.8664) scale(10.1752 18.7578)">
<stop stop-color="#D07E2D"/>
<stop offset="1" stop-color="#D98833" stop-opacity="0"/>
</radialGradient>
<radialGradient id="paint12_radial_111_13" cx="0" cy="0" r="1" gradientUnits="userSpaceOnUse" gradientTransform="translate(100 176.389) rotate(-90) scale(76.3889 152.778)">
<stop stop-color="#F70A8D"/>
<stop offset="1" stop-color="#89029C"/>
</radialGradient>
<linearGradient id="paint13_linear_111_13" x1="100" y1="100" x2="100" y2="109.375" gradientUnits="userSpaceOnUse">
<stop stop-color="#ECCDFF"/>
<stop offset="1" stop-color="white"/>
</linearGradient>
<linearGradient id="paint14_linear_111_13" x1="65.451" y1="92.2825" x2="49.9999" y2="61.5664" gradientUnits="userSpaceOnUse">
<stop offset="0.21392" stop-color="#492741"/>
<stop offset="0.331485" stop-color="#503A4A"/>
<stop offset="0.511203" stop-color="#482641"/>
</linearGradient>
<linearGradient id="paint15_linear_111_13" x1="64.3776" y1="68.7364" x2="65.1021" y2="71.707" gradientUnits="userSpaceOnUse">
<stop stop-color="#2D1721"/>
<stop offset="1" stop-color="#2D1721" stop-opacity="0"/>
</linearGradient>
<radialGradient id="paint16_radial_111_13" cx="0" cy="0" r="1" gradientUnits="userSpaceOnUse" gradientTransform="translate(76.9879 70.5652) rotate(-148.405) scale(35.5144 35.5144)">
<stop offset="0.631717" stop-color="#492741" stop-opacity="0"/>
<stop offset="0.798224" stop-color="#492741"/>
</radialGradient>
<linearGradient id="paint17_linear_111_13" x1="55.3726" y1="69.6158" x2="66.8055" y2="49.4522" gradientUnits="userSpaceOnUse">
<stop offset="0.162863" stop-color="#22161C"/>
<stop offset="0.435713" stop-color="#482641"/>
<stop offset="0.631598" stop-color="#503A4A"/>
</linearGradient>
<linearGradient id="paint18_linear_111_13" x1="64.3776" y1="68.737" x2="65.1021" y2="65.7663" gradientUnits="userSpaceOnUse">
<stop stop-color="#2D1721"/>
<stop offset="1" stop-color="#2D1721" stop-opacity="0"/>
</linearGradient>
<radialGradient id="paint19_radial_111_13" cx="0" cy="0" r="1" gradientUnits="userSpaceOnUse" gradientTransform="translate(76.9879 66.9082) rotate(148.405) scale(35.5144 35.5144)">
<stop offset="0.631717" stop-color="#492741" stop-opacity="0"/>
<stop offset="0.798224" stop-color="#492741"/>
</radialGradient>
<linearGradient id="paint20_linear_111_13" x1="133.789" y1="92.0764" x2="149.904" y2="58.6779" gradientUnits="userSpaceOnUse">
<stop offset="0.207167" stop-color="#381B32"/>
<stop offset="0.277026" stop-color="#482641"/>
<stop offset="0.390091" stop-color="#503A4A"/>
<stop offset="0.516907" stop-color="#503A4A"/>
<stop offset="0.651166" stop-color="#482641"/>
</linearGradient>
<linearGradient id="paint21_linear_111_13" x1="135.526" y1="68.7364" x2="134.802" y2="71.707" gradientUnits="userSpaceOnUse">
<stop stop-color="#2D1721"/>
<stop offset="1" stop-color="#2D1721" stop-opacity="0"/>
</linearGradient>
<linearGradient id="paint22_linear_111_13" x1="144.531" y1="69.6158" x2="129.59" y2="40.3189" gradientUnits="userSpaceOnUse">
<stop offset="0.162402" stop-color="#482641"/>
<stop offset="0.296966" stop-color="#503A4A"/>
<stop offset="0.39491" stop-color="#503A4A"/>
<stop offset="0.511203" stop-color="#482641"/>
</linearGradient>
<radialGradient id="paint23_radial_111_13" cx="0" cy="0" r="1" gradientUnits="userSpaceOnUse" gradientTransform="translate(120.647 67.3642) rotate(29.1673) scale(37.2419 37.2419)">
<stop offset="0.631717" stop-color="#492741" stop-opacity="0"/>
<stop offset="0.798224" stop-color="#492741"/>
</radialGradient>
<radialGradient id="paint24_radial_111_13" cx="0" cy="0" r="1" gradientUnits="userSpaceOnUse" gradientTransform="translate(147.003 54.1036) rotate(134.019) scale(5.6155 10.1585)">
<stop stop-color="#5E5051"/>
<stop offset="1" stop-color="#5E5051" stop-opacity="0"/>
</radialGradient>
<linearGradient id="paint25_linear_111_13" x1="135.526" y1="68.737" x2="134.802" y2="65.7663" gradientUnits="userSpaceOnUse">
<stop stop-color="#2D1721"/>
<stop offset="1" stop-color="#2D1721" stop-opacity="0"/>
</linearGradient>
</defs>
</svg>
