<svg width="100" height="100" viewBox="0 0 200 200" fill="none" xmlns="http://www.w3.org/2000/svg">
<path d="M99.993 187.486C158.333 187.486 187.486 148.314 187.486 99.993C187.486 51.672 158.333 12.5 99.993 12.5C41.6527 12.5 12.5 51.672 12.5 99.993C12.5 148.314 41.6527 187.486 99.993 187.486Z" fill="url(#paint0_radial_111_2)"/>
<path d="M99.993 187.486C158.333 187.486 187.486 148.314 187.486 99.993C187.486 51.672 158.333 12.5 99.993 12.5C41.6527 12.5 12.5 51.672 12.5 99.993C12.5 148.314 41.6527 187.486 99.993 187.486Z" fill="url(#paint1_radial_111_2)"/>
<path d="M99.993 187.486C158.333 187.486 187.486 148.314 187.486 99.993C187.486 51.672 158.333 12.5 99.993 12.5C41.6527 12.5 12.5 51.672 12.5 99.993C12.5 148.314 41.6527 187.486 99.993 187.486Z" fill="url(#paint2_radial_111_2)" fill-opacity="0.6"/>
<path d="M99.993 187.486C158.333 187.486 187.486 148.314 187.486 99.993C187.486 51.672 158.333 12.5 99.993 12.5C41.6527 12.5 12.5 51.672 12.5 99.993C12.5 148.314 41.6527 187.486 99.993 187.486Z" fill="url(#paint3_radial_111_2)"/>
<path d="M99.993 187.486C158.333 187.486 187.486 148.314 187.486 99.993C187.486 51.672 158.333 12.5 99.993 12.5C41.6527 12.5 12.5 51.672 12.5 99.993C12.5 148.314 41.6527 187.486 99.993 187.486Z" fill="url(#paint4_radial_111_2)"/>
<path d="M99.993 187.486C158.333 187.486 187.486 148.314 187.486 99.993C187.486 51.672 158.333 12.5 99.993 12.5C41.6527 12.5 12.5 51.672 12.5 99.993C12.5 148.314 41.6527 187.486 99.993 187.486Z" fill="url(#paint5_radial_111_2)"/>
<path d="M99.993 187.486C158.333 187.486 187.486 148.314 187.486 99.993C187.486 51.672 158.333 12.5 99.993 12.5C41.6527 12.5 12.5 51.672 12.5 99.993C12.5 148.314 41.6527 187.486 99.993 187.486Z" fill="url(#paint6_radial_111_2)"/>
<path d="M99.993 187.486C158.333 187.486 187.486 148.314 187.486 99.993C187.486 51.672 158.333 12.5 99.993 12.5C41.6527 12.5 12.5 51.672 12.5 99.993C12.5 148.314 41.6527 187.486 99.993 187.486Z" fill="url(#paint7_radial_111_2)"/>
<path d="M99.993 187.486C158.333 187.486 187.486 148.314 187.486 99.993C187.486 51.672 158.333 12.5 99.993 12.5C41.6527 12.5 12.5 51.672 12.5 99.993C12.5 148.314 41.6527 187.486 99.993 187.486Z" fill="url(#paint8_radial_111_2)"/>
<path d="M99.993 187.486C158.333 187.486 187.486 148.314 187.486 99.993C187.486 51.672 158.333 12.5 99.993 12.5C41.6527 12.5 12.5 51.672 12.5 99.993C12.5 148.314 41.6527 187.486 99.993 187.486Z" fill="url(#paint9_radial_111_2)"/>
<path d="M99.993 187.486C158.333 187.486 187.486 148.314 187.486 99.993C187.486 51.672 158.333 12.5 99.993 12.5C41.6527 12.5 12.5 51.672 12.5 99.993C12.5 148.314 41.6527 187.486 99.993 187.486Z" fill="url(#paint10_radial_111_2)"/>
<path fill-rule="evenodd" clip-rule="evenodd" d="M65.625 89.0625C80.2951 89.0625 92.1875 77.1701 92.1875 62.5C92.1875 47.8299 80.2951 35.9375 65.625 35.9375C50.9549 35.9375 39.0625 47.8299 39.0625 62.5C39.0625 77.1701 50.9549 89.0625 65.625 89.0625ZM134.375 89.0625C149.045 89.0625 160.938 77.1701 160.938 62.5C160.938 47.8299 149.045 35.9375 134.375 35.9375C119.705 35.9375 107.812 47.8299 107.812 62.5C107.812 77.1701 119.705 89.0625 134.375 89.0625Z" fill="white"/>
<path fill-rule="evenodd" clip-rule="evenodd" d="M82.8125 62.5C82.8125 70.2665 76.5165 76.5625 68.75 76.5625C60.9835 76.5625 54.6875 70.2665 54.6875 62.5C54.6875 54.7335 60.9835 48.4375 68.75 48.4375C76.5165 48.4375 82.8125 54.7335 82.8125 62.5ZM145.312 62.5C145.312 70.2665 139.017 76.5625 131.25 76.5625C123.483 76.5625 117.188 70.2665 117.188 62.5C117.188 54.7335 123.483 48.4375 131.25 48.4375C139.017 48.4375 145.312 54.7335 145.312 62.5Z" fill="url(#paint11_linear_111_2)"/>
<path d="M100 156.25C43.75 156.25 43.75 100 43.75 100H156.25C156.25 100 156.25 156.25 100 156.25Z" fill="url(#paint12_radial_111_2)"/>
<path d="M50 108.375V100H150V108.375C150 108.927 149.552 109.375 149 109.375H51C50.4477 109.375 50 108.927 50 108.375Z" fill="url(#paint13_linear_111_2)"/>
<defs>
<radialGradient id="paint0_radial_111_2" cx="0" cy="0" r="1" gradientUnits="userSpaceOnUse" gradientTransform="translate(159.375 56.25) rotate(131.878) scale(243.429)">
<stop stop-color="#FFF478"/>
<stop offset="0.474827" stop-color="#FFB02E"/>
<stop offset="1" stop-color="#F70A8D"/>
</radialGradient>
<radialGradient id="paint1_radial_111_2" cx="0" cy="0" r="1" gradientUnits="userSpaceOnUse" gradientTransform="translate(100 78.125) rotate(101.31) scale(111.541 142.863)">
<stop offset="0.787821" stop-color="#F59639" stop-opacity="0"/>
<stop offset="0.972509" stop-color="#FF7DCE"/>
</radialGradient>
<radialGradient id="paint2_radial_111_2" cx="0" cy="0" r="1" gradientUnits="userSpaceOnUse" gradientTransform="translate(112.5 87.5) rotate(135) scale(256.326)">
<stop offset="0.314853" stop-opacity="0"/>
<stop offset="1"/>
</radialGradient>
<radialGradient id="paint3_radial_111_2" cx="0" cy="0" r="1" gradientUnits="userSpaceOnUse" gradientTransform="translate(100 106.25) rotate(77.692) scale(175.918)">
<stop offset="0.507903" stop-color="#7D6133" stop-opacity="0"/>
<stop offset="1" stop-color="#715B32"/>
</radialGradient>
<radialGradient id="paint4_radial_111_2" cx="0" cy="0" r="1" gradientUnits="userSpaceOnUse" gradientTransform="translate(103.125 103.125) rotate(55.7131) scale(83.2095 60.3145)">
<stop stop-color="#FFB849"/>
<stop offset="1" stop-color="#FFB847" stop-opacity="0"/>
</radialGradient>
<radialGradient id="paint5_radial_111_2" cx="0" cy="0" r="1" gradientUnits="userSpaceOnUse" gradientTransform="translate(128.125 112.5) rotate(9.86581) scale(72.9539)">
<stop stop-color="#FFA64B"/>
<stop offset="0.900412" stop-color="#FFAE46" stop-opacity="0"/>
</radialGradient>
<radialGradient id="paint6_radial_111_2" cx="0" cy="0" r="1" gradientUnits="userSpaceOnUse" gradientTransform="translate(109.375 93.75) rotate(43.9708) scale(369.081)">
<stop offset="0.185425" stop-opacity="0"/>
<stop offset="1" stop-opacity="0.4"/>
</radialGradient>
<radialGradient id="paint7_radial_111_2" cx="0" cy="0" r="1" gradientUnits="userSpaceOnUse" gradientTransform="translate(53.125 65.625) rotate(83.6598) scale(28.2981 22.9024)">
<stop offset="0.47452" stop-color="#B3671F"/>
<stop offset="0.781916" stop-color="#B3671F" stop-opacity="0.236695"/>
<stop offset="0.873485" stop-color="#B3671F" stop-opacity="0.0865443"/>
<stop offset="0.948588" stop-color="#B3671F" stop-opacity="0"/>
</radialGradient>
<radialGradient id="paint8_radial_111_2" cx="0" cy="0" r="1" gradientUnits="userSpaceOnUse" gradientTransform="translate(121.875 59.375) rotate(102.529) scale(28.8111 22.2005)">
<stop offset="0.308886" stop-color="#D57B2A"/>
<stop offset="0.773417" stop-color="#E28B30" stop-opacity="0.15"/>
<stop offset="0.936131" stop-color="#E28B30" stop-opacity="0"/>
</radialGradient>
<radialGradient id="paint9_radial_111_2" cx="0" cy="0" r="1" gradientUnits="userSpaceOnUse" gradientTransform="translate(66.281 66.5303) rotate(84.716) scale(25.4452)">
<stop offset="0.359039" stop-color="#C84E28"/>
<stop offset="1" stop-color="#C84528" stop-opacity="0"/>
</radialGradient>
<radialGradient id="paint10_radial_111_2" cx="0" cy="0" r="1" gradientUnits="userSpaceOnUse" gradientTransform="translate(133.363 65.7349) rotate(104.846) scale(26.8834)">
<stop offset="0.359039" stop-color="#C84E28"/>
<stop offset="1" stop-color="#C84528" stop-opacity="0"/>
</radialGradient>
<linearGradient id="paint11_linear_111_2" x1="103.125" y1="50" x2="103.125" y2="75" gradientUnits="userSpaceOnUse">
<stop stop-color="#553B3E"/>
<stop offset="1" stop-color="#3D2432"/>
</linearGradient>
<radialGradient id="paint12_radial_111_2" cx="0" cy="0" r="1" gradientUnits="userSpaceOnUse" gradientTransform="translate(100 168.75) rotate(-90) scale(68.75 137.5)">
<stop stop-color="#F70A8D"/>
<stop offset="1" stop-color="#89029C"/>
</radialGradient>
<linearGradient id="paint13_linear_111_2" x1="100" y1="100" x2="100" y2="109.375" gradientUnits="userSpaceOnUse">
<stop stop-color="#ECCDFF"/>
<stop offset="1" stop-color="white"/>
</linearGradient>
</defs>
</svg>
